# MagicaVoxel @ Ephtracy

# group
o 

# material
mtllib Counter-3.mtl
usemtl palette

# normals
vn 1 0 0
vn -1 0 0
vn 0 0 1
vn 0 0 -1
vn 0 -1 0
vn 0 1 0

# texcoords
vt 0.201172 0.5
vt 0.369141 0.5

# verts
v 16.8 6.3 -17
v 16.8 6.3 -17.9
v 16.8 6.3 -18.1
v 16.8 6.3 -18.6
v 16.8 6.4 -17
v 16.8 6.4 -17.9
v 16.8 6.4 -18.1
v 16.8 6.4 -18.6
v 13 6.3 -17
v 13 6.3 -17.5
v 13 6.3 -17.6
v 13 6.3 -18
v 13 6.3 -18.1
v 13 6.3 -18.6
v 13 6.4 -17
v 13 6.4 -17.5
v 13 6.4 -17.6
v 13 6.4 -18
v 13 6.4 -18.1
v 13 6.4 -18.6
v 16.8 6.3 -17
v 16.8 6.4 -17
v 13 6.3 -17
v 13 6.4 -17
v 16.8 6.3 -18.6
v 16.8 6.4 -18.6
v 13 6.3 -18.6
v 13 6.4 -18.6
v 16.8 6.3 -17
v 13 6.3 -17
v 15.8 6.3 -17.4
v 15.1 6.3 -17.4
v 15.9 6.3 -17.5
v 15.8 6.3 -17.5
v 15.1 6.3 -17.5
v 14.8 6.3 -17.5
v 13.8 6.3 -17.5
v 13 6.3 -17.5
v 16.3 6.3 -17.6
v 15.9 6.3 -17.6
v 15.8 6.3 -17.6
v 15.1 6.3 -17.6
v 14.8 6.3 -17.6
v 13.8 6.3 -17.6
v 13 6.3 -17.6
v 16.5 6.3 -17.7
v 16.3 6.3 -17.7
v 15.9 6.3 -17.7
v 14.8 6.3 -17.7
v 13.8 6.3 -17.7
v 16.7 6.3 -17.8
v 16.5 6.3 -17.8
v 16.4 6.3 -17.8
v 16.3 6.3 -17.8
v 16.8 6.3 -17.9
v 16.7 6.3 -17.9
v 16.6 6.3 -17.9
v 16.4 6.3 -17.9
v 16.7 6.3 -18
v 16.6 6.3 -18
v 15.8 6.3 -18
v 13 6.3 -18
v 16.8 6.3 -18.1
v 16.7 6.3 -18.1
v 15.8 6.3 -18.1
v 13 6.3 -18.1
v 16.7 6.3 -18.2
v 15.8 6.3 -18.2
v 16.8 6.3 -18.6
v 13 6.3 -18.6
v 16.8 6.4 -17
v 13 6.4 -17
v 15.8 6.4 -17.4
v 15.1 6.4 -17.4
v 15.9 6.4 -17.5
v 15.8 6.4 -17.5
v 15.1 6.4 -17.5
v 14.8 6.4 -17.5
v 13.8 6.4 -17.5
v 13 6.4 -17.5
v 16.3 6.4 -17.6
v 15.9 6.4 -17.6
v 15.8 6.4 -17.6
v 15.1 6.4 -17.6
v 14.8 6.4 -17.6
v 13.8 6.4 -17.6
v 13 6.4 -17.6
v 16.5 6.4 -17.7
v 16.3 6.4 -17.7
v 15.9 6.4 -17.7
v 14.8 6.4 -17.7
v 13.8 6.4 -17.7
v 16.7 6.4 -17.8
v 16.5 6.4 -17.8
v 16.4 6.4 -17.8
v 16.3 6.4 -17.8
v 16.8 6.4 -17.9
v 16.7 6.4 -17.9
v 16.6 6.4 -17.9
v 16.4 6.4 -17.9
v 16.7 6.4 -18
v 16.6 6.4 -18
v 15.8 6.4 -18
v 13 6.4 -18
v 16.8 6.4 -18.1
v 16.7 6.4 -18.1
v 15.8 6.4 -18.1
v 13 6.4 -18.1
v 16.7 6.4 -18.2
v 15.8 6.4 -18.2
v 16.8 6.4 -18.6
v 13 6.4 -18.6

# faces
f 1/1/1 2/1/1 5/1/1
f 2/2/1 3/2/1 6/2/1
f 5/1/1 2/1/1 6/1/1
f 3/1/1 4/1/1 7/1/1
f 6/2/1 3/2/1 7/2/1
f 7/1/1 4/1/1 8/1/1
f 15/1/2 10/1/2 9/1/2
f 16/2/2 11/2/2 10/2/2
f 16/1/2 10/1/2 15/1/2
f 17/1/2 12/1/2 11/1/2
f 17/2/2 11/2/2 16/2/2
f 18/2/2 13/2/2 12/2/2
f 18/1/2 12/1/2 17/1/2
f 19/1/2 14/1/2 13/1/2
f 19/2/2 13/2/2 18/2/2
f 20/1/2 14/1/2 19/1/2
f 21/1/3 22/1/3 23/1/3
f 23/1/3 22/1/3 24/1/3
f 27/1/4 26/1/4 25/1/4
f 28/1/4 26/1/4 27/1/4
f 29/1/5 30/1/5 31/1/5
f 31/1/5 30/1/5 32/1/5
f 29/1/5 31/1/5 33/1/5
f 31/2/5 32/2/5 34/2/5
f 33/1/5 31/1/5 34/1/5
f 32/1/5 30/1/5 35/1/5
f 34/2/5 32/2/5 35/2/5
f 35/1/5 30/1/5 36/1/5
f 36/1/5 30/1/5 37/1/5
f 37/1/5 30/1/5 38/1/5
f 29/1/5 33/1/5 39/1/5
f 33/2/5 34/2/5 40/2/5
f 39/1/5 33/1/5 40/1/5
f 34/1/5 35/1/5 41/1/5
f 40/2/5 34/2/5 41/2/5
f 35/2/5 36/2/5 42/2/5
f 41/1/5 35/1/5 42/1/5
f 36/1/5 37/1/5 43/1/5
f 42/2/5 36/2/5 43/2/5
f 37/2/5 38/2/5 44/2/5
f 43/1/5 37/1/5 44/1/5
f 44/2/5 38/2/5 45/2/5
f 29/1/5 39/1/5 46/1/5
f 39/2/5 40/2/5 47/2/5
f 46/1/5 39/1/5 47/1/5
f 40/1/5 41/1/5 48/1/5
f 47/2/5 40/2/5 48/2/5
f 41/1/5 42/1/5 48/1/5
f 42/1/5 43/1/5 48/1/5
f 43/2/5 44/2/5 49/2/5
f 48/1/5 43/1/5 49/1/5
f 44/1/5 45/1/5 50/1/5
f 49/2/5 44/2/5 50/2/5
f 29/1/5 46/1/5 51/1/5
f 46/2/5 47/2/5 52/2/5
f 51/1/5 46/1/5 52/1/5
f 52/2/5 47/2/5 53/2/5
f 48/1/5 49/1/5 54/1/5
f 53/2/5 47/2/5 54/2/5
f 47/1/5 48/1/5 54/1/5
f 49/1/5 50/1/5 54/1/5
f 29/1/5 51/1/5 55/1/5
f 52/2/5 53/2/5 56/2/5
f 55/1/5 51/1/5 56/1/5
f 51/2/5 52/2/5 56/2/5
f 56/2/5 53/2/5 57/2/5
f 53/1/5 54/1/5 58/1/5
f 57/2/5 53/2/5 58/2/5
f 56/2/5 57/2/5 59/2/5
f 55/2/5 56/2/5 59/2/5
f 57/1/5 58/1/5 60/1/5
f 59/2/5 57/2/5 60/2/5
f 54/1/5 50/1/5 61/1/5
f 60/1/5 58/1/5 61/1/5
f 58/1/5 54/1/5 61/1/5
f 50/1/5 45/1/5 62/1/5
f 61/1/5 50/1/5 62/1/5
f 55/2/5 59/2/5 63/2/5
f 60/1/5 61/1/5 64/1/5
f 63/2/5 59/2/5 64/2/5
f 59/1/5 60/1/5 64/1/5
f 61/2/5 62/2/5 65/2/5
f 64/1/5 61/1/5 65/1/5
f 65/2/5 62/2/5 66/2/5
f 63/1/5 64/1/5 67/1/5
f 64/2/5 65/2/5 67/2/5
f 65/1/5 66/1/5 68/1/5
f 67/2/5 65/2/5 68/2/5
f 63/1/5 67/1/5 69/1/5
f 67/1/5 68/1/5 69/1/5
f 68/1/5 66/1/5 70/1/5
f 69/1/5 68/1/5 70/1/5
f 73/1/6 72/1/6 71/1/6
f 74/1/6 72/1/6 73/1/6
f 75/1/6 73/1/6 71/1/6
f 76/2/6 74/2/6 73/2/6
f 76/1/6 73/1/6 75/1/6
f 77/1/6 72/1/6 74/1/6
f 77/2/6 74/2/6 76/2/6
f 78/1/6 72/1/6 77/1/6
f 79/1/6 72/1/6 78/1/6
f 80/1/6 72/1/6 79/1/6
f 81/1/6 75/1/6 71/1/6
f 82/2/6 76/2/6 75/2/6
f 82/1/6 75/1/6 81/1/6
f 83/1/6 77/1/6 76/1/6
f 83/2/6 76/2/6 82/2/6
f 84/2/6 78/2/6 77/2/6
f 84/1/6 77/1/6 83/1/6
f 85/1/6 79/1/6 78/1/6
f 85/2/6 78/2/6 84/2/6
f 86/2/6 80/2/6 79/2/6
f 86/1/6 79/1/6 85/1/6
f 87/2/6 80/2/6 86/2/6
f 88/1/6 81/1/6 71/1/6
f 89/2/6 82/2/6 81/2/6
f 89/1/6 81/1/6 88/1/6
f 90/1/6 83/1/6 82/1/6
f 90/2/6 82/2/6 89/2/6
f 90/1/6 84/1/6 83/1/6
f 90/1/6 85/1/6 84/1/6
f 91/2/6 86/2/6 85/2/6
f 91/1/6 85/1/6 90/1/6
f 92/1/6 87/1/6 86/1/6
f 92/2/6 86/2/6 91/2/6
f 93/1/6 88/1/6 71/1/6
f 94/2/6 89/2/6 88/2/6
f 94/1/6 88/1/6 93/1/6
f 95/2/6 89/2/6 94/2/6
f 96/1/6 91/1/6 90/1/6
f 96/2/6 89/2/6 95/2/6
f 96/1/6 90/1/6 89/1/6
f 96/1/6 92/1/6 91/1/6
f 97/1/6 93/1/6 71/1/6
f 98/2/6 95/2/6 94/2/6
f 98/1/6 93/1/6 97/1/6
f 98/2/6 94/2/6 93/2/6
f 99/2/6 95/2/6 98/2/6
f 100/1/6 96/1/6 95/1/6
f 100/2/6 95/2/6 99/2/6
f 101/2/6 99/2/6 98/2/6
f 101/2/6 98/2/6 97/2/6
f 102/1/6 100/1/6 99/1/6
f 102/2/6 99/2/6 101/2/6
f 103/1/6 92/1/6 96/1/6
f 103/1/6 100/1/6 102/1/6
f 103/1/6 96/1/6 100/1/6
f 104/1/6 87/1/6 92/1/6
f 104/1/6 92/1/6 103/1/6
f 105/2/6 101/2/6 97/2/6
f 106/1/6 103/1/6 102/1/6
f 106/2/6 101/2/6 105/2/6
f 106/1/6 102/1/6 101/1/6
f 107/2/6 104/2/6 103/2/6
f 107/1/6 103/1/6 106/1/6
f 108/2/6 104/2/6 107/2/6
f 109/1/6 106/1/6 105/1/6
f 109/2/6 107/2/6 106/2/6
f 110/1/6 108/1/6 107/1/6
f 110/2/6 107/2/6 109/2/6
f 111/1/6 109/1/6 105/1/6
f 111/1/6 110/1/6 109/1/6
f 112/1/6 108/1/6 110/1/6
f 112/1/6 110/1/6 111/1/6
