# MagicaVoxel @ Ephtracy

# group
o 

# material
mtllib Counter-5.mtl
usemtl palette

# normals
vn 1 0 0
vn -1 0 0
vn 0 -1 0
vn 0 1 0
vn 0 0 -1
vn 0 0 1

# texcoords
vt 0.201172 0.5
vt 0.369141 0.5
vt 0.537109 0.5

# verts
v -6 4.8 -17
v -6 4.9 -17
v -6 5 -17
v -6 5.2 -17
v -6 5.3 -17
v -6 5.7 -17
v -6 5.8 -17
v -6 6 -17
v -6 6.2 -17
v -6 6.3 -17
v -6 6.4 -17
v -6 4.8 -16.9
v -6 4.9 -16.9
v -6 5 -16.9
v -6 5.2 -16.9
v -6 5.3 -16.9
v -6 5.7 -16.9
v -6 5.8 -16.9
v -6 6 -16.9
v -6 6.2 -16.9
v -6 6.3 -16.9
v -6 6.4 -16.9
v -9.8 4.8 -17
v -9.8 4.9 -17
v -9.8 5 -17
v -9.8 6 -17
v -9.8 6.1 -17
v -9.8 6.4 -17
v -9.8 4.8 -16.9
v -9.8 4.9 -16.9
v -9.8 5 -16.9
v -9.8 6 -16.9
v -9.8 6.1 -16.9
v -9.8 6.4 -16.9
v -6 4.8 -17
v -6 4.8 -16.9
v -6.3 4.8 -17
v -6.3 4.8 -16.9
v -7.1 4.8 -17
v -7.1 4.8 -16.9
v -7.3 4.8 -17
v -7.3 4.8 -16.9
v -9.8 4.8 -17
v -9.8 4.8 -16.9
v -6 6.4 -17
v -6 6.4 -16.9
v -8.4 6.4 -17
v -8.4 6.4 -16.9
v -8.5 6.4 -17
v -8.5 6.4 -16.9
v -8.6 6.4 -17
v -8.6 6.4 -16.9
v -8.9 6.4 -17
v -8.9 6.4 -16.9
v -9.8 6.4 -17
v -9.8 6.4 -16.9
v -6 4.8 -17
v -6.3 4.8 -17
v -7.1 4.8 -17
v -7.3 4.8 -17
v -9.8 4.8 -17
v -6 4.9 -17
v -6.3 4.9 -17
v -6.6 4.9 -17
v -7.1 4.9 -17
v -7.3 4.9 -17
v -7.5 4.9 -17
v -8.9 4.9 -17
v -9.8 4.9 -17
v -6 5 -17
v -6.3 5 -17
v -6.6 5 -17
v -7.3 5 -17
v -7.4 5 -17
v -7.5 5 -17
v -7.8 5 -17
v -8.7 5 -17
v -8.9 5 -17
v -9.8 5 -17
v -7.4 5.1 -17
v -7.8 5.1 -17
v -8.6 5.1 -17
v -8.7 5.1 -17
v -8.9 5.1 -17
v -6 5.2 -17
v -6.1 5.2 -17
v -8.5 5.2 -17
v -8.6 5.2 -17
v -8.7 5.2 -17
v -9.3 5.2 -17
v -9.7 5.2 -17
v -6 5.3 -17
v -6.1 5.3 -17
v -6.5 5.3 -17
v -6.8 5.3 -17
v -8.5 5.3 -17
v -8.6 5.3 -17
v -9 5.3 -17
v -9.1 5.3 -17
v -9.2 5.3 -17
v -9.3 5.3 -17
v -9.4 5.3 -17
v -9.7 5.3 -17
v -6.1 5.4 -17
v -6.5 5.4 -17
v -6.7 5.4 -17
v -6.8 5.4 -17
v -6.9 5.4 -17
v -8.9 5.4 -17
v -9 5.4 -17
v -9.2 5.4 -17
v -9.4 5.4 -17
v -6.5 5.5 -17
v -6.7 5.5 -17
v -6.9 5.5 -17
v -7 5.5 -17
v -7.4 5.5 -17
v -9 5.5 -17
v -9.1 5.5 -17
v -6.7 5.6 -17
v -7 5.6 -17
v -7.1 5.6 -17
v -7.4 5.6 -17
v -7.6 5.6 -17
v -8.5 5.6 -17
v -8.6 5.6 -17
v -8.9 5.6 -17
v -9 5.6 -17
v -9.1 5.6 -17
v -9.2 5.6 -17
v -6 5.7 -17
v -6.2 5.7 -17
v -7.1 5.7 -17
v -7.6 5.7 -17
v -8 5.7 -17
v -8.3 5.7 -17
v -8.5 5.7 -17
v -9 5.7 -17
v -9.1 5.7 -17
v -6 5.8 -17
v -6.1 5.8 -17
v -6.2 5.8 -17
v -6.3 5.8 -17
v -7.6 5.8 -17
v -8 5.8 -17
v -8.3 5.8 -17
v -8.6 5.8 -17
v -8.8 5.8 -17
v -8.9 5.8 -17
v -9 5.8 -17
v -9.1 5.8 -17
v -6.1 5.9 -17
v -6.3 5.9 -17
v -6.7 5.9 -17
v -7.3 5.9 -17
v -7.4 5.9 -17
v -8 5.9 -17
v -8.3 5.9 -17
v -8.7 5.9 -17
v -8.8 5.9 -17
v -8.9 5.9 -17
v -9 5.9 -17
v -6 6 -17
v -6.1 6 -17
v -6.2 6 -17
v -6.4 6 -17
v -6.7 6 -17
v -7.3 6 -17
v -7.4 6 -17
v -8.6 6 -17
v -8.7 6 -17
v -8.8 6 -17
v -8.9 6 -17
v -9.5 6 -17
v -9.8 6 -17
v -6.1 6.1 -17
v -6.2 6.1 -17
v -6.3 6.1 -17
v -6.4 6.1 -17
v -6.7 6.1 -17
v -7.3 6.1 -17
v -7.4 6.1 -17
v -7.5 6.1 -17
v -8.5 6.1 -17
v -8.6 6.1 -17
v -8.7 6.1 -17
v -8.8 6.1 -17
v -9 6.1 -17
v -9.2 6.1 -17
v -9.5 6.1 -17
v -9.8 6.1 -17
v -6 6.2 -17
v -6.3 6.2 -17
v -6.4 6.2 -17
v -6.5 6.2 -17
v -6.7 6.2 -17
v -6.8 6.2 -17
v -7.4 6.2 -17
v -8.6 6.2 -17
v -8.7 6.2 -17
v -8.8 6.2 -17
v -8.9 6.2 -17
v -9.2 6.2 -17
v -9.5 6.2 -17
v -6 6.3 -17
v -6.5 6.3 -17
v -6.8 6.3 -17
v -7.5 6.3 -17
v -8.4 6.3 -17
v -8.5 6.3 -17
v -8.7 6.3 -17
v -8.9 6.3 -17
v -9.2 6.3 -17
v -6 6.4 -17
v -8.4 6.4 -17
v -8.5 6.4 -17
v -8.6 6.4 -17
v -8.9 6.4 -17
v -9.8 6.4 -17
v -6 4.8 -16.9
v -6.3 4.8 -16.9
v -7.1 4.8 -16.9
v -7.3 4.8 -16.9
v -9.8 4.8 -16.9
v -6 4.9 -16.9
v -6.3 4.9 -16.9
v -6.6 4.9 -16.9
v -7.1 4.9 -16.9
v -7.3 4.9 -16.9
v -7.5 4.9 -16.9
v -8.9 4.9 -16.9
v -9.8 4.9 -16.9
v -6 5 -16.9
v -6.3 5 -16.9
v -6.6 5 -16.9
v -7.3 5 -16.9
v -7.4 5 -16.9
v -7.5 5 -16.9
v -7.8 5 -16.9
v -8.7 5 -16.9
v -8.9 5 -16.9
v -9.8 5 -16.9
v -7.4 5.1 -16.9
v -7.8 5.1 -16.9
v -8.6 5.1 -16.9
v -8.7 5.1 -16.9
v -8.9 5.1 -16.9
v -6 5.2 -16.9
v -6.1 5.2 -16.9
v -8.5 5.2 -16.9
v -8.6 5.2 -16.9
v -8.7 5.2 -16.9
v -9.3 5.2 -16.9
v -9.7 5.2 -16.9
v -6 5.3 -16.9
v -6.1 5.3 -16.9
v -6.5 5.3 -16.9
v -6.8 5.3 -16.9
v -8.5 5.3 -16.9
v -8.6 5.3 -16.9
v -9 5.3 -16.9
v -9.1 5.3 -16.9
v -9.2 5.3 -16.9
v -9.3 5.3 -16.9
v -9.4 5.3 -16.9
v -9.7 5.3 -16.9
v -6.1 5.4 -16.9
v -6.5 5.4 -16.9
v -6.7 5.4 -16.9
v -6.8 5.4 -16.9
v -6.9 5.4 -16.9
v -8.9 5.4 -16.9
v -9 5.4 -16.9
v -9.2 5.4 -16.9
v -9.4 5.4 -16.9
v -6.5 5.5 -16.9
v -6.7 5.5 -16.9
v -6.9 5.5 -16.9
v -7 5.5 -16.9
v -7.4 5.5 -16.9
v -9 5.5 -16.9
v -9.1 5.5 -16.9
v -6.7 5.6 -16.9
v -7 5.6 -16.9
v -7.1 5.6 -16.9
v -7.4 5.6 -16.9
v -7.6 5.6 -16.9
v -8.5 5.6 -16.9
v -8.6 5.6 -16.9
v -8.9 5.6 -16.9
v -9 5.6 -16.9
v -9.1 5.6 -16.9
v -9.2 5.6 -16.9
v -6 5.7 -16.9
v -6.2 5.7 -16.9
v -7.1 5.7 -16.9
v -7.6 5.7 -16.9
v -8 5.7 -16.9
v -8.3 5.7 -16.9
v -8.5 5.7 -16.9
v -9 5.7 -16.9
v -9.1 5.7 -16.9
v -6 5.8 -16.9
v -6.1 5.8 -16.9
v -6.2 5.8 -16.9
v -6.3 5.8 -16.9
v -7.6 5.8 -16.9
v -8 5.8 -16.9
v -8.3 5.8 -16.9
v -8.6 5.8 -16.9
v -8.8 5.8 -16.9
v -8.9 5.8 -16.9
v -9 5.8 -16.9
v -9.1 5.8 -16.9
v -6.1 5.9 -16.9
v -6.3 5.9 -16.9
v -6.7 5.9 -16.9
v -7.3 5.9 -16.9
v -7.4 5.9 -16.9
v -8 5.9 -16.9
v -8.3 5.9 -16.9
v -8.7 5.9 -16.9
v -8.8 5.9 -16.9
v -8.9 5.9 -16.9
v -9 5.9 -16.9
v -6 6 -16.9
v -6.1 6 -16.9
v -6.2 6 -16.9
v -6.4 6 -16.9
v -6.7 6 -16.9
v -7.3 6 -16.9
v -7.4 6 -16.9
v -8.6 6 -16.9
v -8.7 6 -16.9
v -8.8 6 -16.9
v -8.9 6 -16.9
v -9.5 6 -16.9
v -9.8 6 -16.9
v -6.1 6.1 -16.9
v -6.2 6.1 -16.9
v -6.3 6.1 -16.9
v -6.4 6.1 -16.9
v -6.7 6.1 -16.9
v -7.3 6.1 -16.9
v -7.4 6.1 -16.9
v -7.5 6.1 -16.9
v -8.5 6.1 -16.9
v -8.6 6.1 -16.9
v -8.7 6.1 -16.9
v -8.8 6.1 -16.9
v -9 6.1 -16.9
v -9.2 6.1 -16.9
v -9.5 6.1 -16.9
v -9.8 6.1 -16.9
v -6 6.2 -16.9
v -6.3 6.2 -16.9
v -6.4 6.2 -16.9
v -6.5 6.2 -16.9
v -6.7 6.2 -16.9
v -6.8 6.2 -16.9
v -7.4 6.2 -16.9
v -8.6 6.2 -16.9
v -8.7 6.2 -16.9
v -8.8 6.2 -16.9
v -8.9 6.2 -16.9
v -9.2 6.2 -16.9
v -9.5 6.2 -16.9
v -6 6.3 -16.9
v -6.5 6.3 -16.9
v -6.8 6.3 -16.9
v -7.5 6.3 -16.9
v -8.4 6.3 -16.9
v -8.5 6.3 -16.9
v -8.7 6.3 -16.9
v -8.9 6.3 -16.9
v -9.2 6.3 -16.9
v -6 6.4 -16.9
v -8.4 6.4 -16.9
v -8.5 6.4 -16.9
v -8.6 6.4 -16.9
v -8.9 6.4 -16.9
v -9.8 6.4 -16.9

# faces
f 1/2/1 2/2/1 12/2/1
f 2/3/1 3/3/1 13/3/1
f 12/2/1 2/2/1 13/2/1
f 3/1/1 4/1/1 14/1/1
f 13/3/1 3/3/1 14/3/1
f 4/2/1 5/2/1 15/2/1
f 14/1/1 4/1/1 15/1/1
f 5/1/1 6/1/1 16/1/1
f 15/2/1 5/2/1 16/2/1
f 6/2/1 7/2/1 17/2/1
f 16/1/1 6/1/1 17/1/1
f 7/3/1 8/3/1 18/3/1
f 17/2/1 7/2/1 18/2/1
f 8/1/1 9/1/1 19/1/1
f 18/3/1 8/3/1 19/3/1
f 9/2/1 10/2/1 20/2/1
f 19/1/1 9/1/1 20/1/1
f 10/1/1 11/1/1 21/1/1
f 20/2/1 10/2/1 21/2/1
f 21/1/1 11/1/1 22/1/1
f 29/1/2 24/1/2 23/1/2
f 30/2/2 25/2/2 24/2/2
f 30/1/2 24/1/2 29/1/2
f 31/1/2 26/1/2 25/1/2
f 31/2/2 25/2/2 30/2/2
f 32/2/2 27/2/2 26/2/2
f 32/1/2 26/1/2 31/1/2
f 33/1/2 28/1/2 27/1/2
f 33/2/2 27/2/2 32/2/2
f 34/1/2 28/1/2 33/1/2
f 35/2/3 36/2/3 37/2/3
f 37/2/3 36/2/3 38/2/3
f 37/1/3 38/1/3 39/1/3
f 39/1/3 38/1/3 40/1/3
f 39/2/3 40/2/3 41/2/3
f 41/2/3 40/2/3 42/2/3
f 41/1/3 42/1/3 43/1/3
f 43/1/3 42/1/3 44/1/3
f 47/1/4 46/1/4 45/1/4
f 48/1/4 46/1/4 47/1/4
f 49/2/4 48/2/4 47/2/4
f 50/2/4 48/2/4 49/2/4
f 51/3/4 50/3/4 49/3/4
f 52/3/4 50/3/4 51/3/4
f 53/2/4 52/2/4 51/2/4
f 54/2/4 52/2/4 53/2/4
f 55/1/4 54/1/4 53/1/4
f 56/1/4 54/1/4 55/1/4
f 57/2/5 58/2/5 62/2/5
f 58/1/5 59/1/5 63/1/5
f 62/2/5 58/2/5 63/2/5
f 63/1/5 59/1/5 64/1/5
f 59/2/5 60/2/5 65/2/5
f 64/1/5 59/1/5 65/1/5
f 60/1/5 61/1/5 66/1/5
f 65/2/5 60/2/5 66/2/5
f 66/1/5 61/1/5 67/1/5
f 67/1/5 61/1/5 68/1/5
f 68/1/5 61/1/5 69/1/5
f 62/3/5 63/3/5 70/3/5
f 63/2/5 64/2/5 71/2/5
f 70/3/5 63/3/5 71/3/5
f 64/1/5 65/1/5 72/1/5
f 71/2/5 64/2/5 72/2/5
f 65/1/5 66/1/5 72/1/5
f 66/2/5 67/2/5 73/2/5
f 72/1/5 66/1/5 73/1/5
f 73/2/5 67/2/5 74/2/5
f 67/1/5 68/1/5 75/1/5
f 74/2/5 67/2/5 75/2/5
f 75/1/5 68/1/5 76/1/5
f 76/1/5 68/1/5 77/1/5
f 68/2/5 69/2/5 78/2/5
f 77/1/5 68/1/5 78/1/5
f 78/2/5 69/2/5 79/2/5
f 70/1/5 71/1/5 80/1/5
f 71/1/5 72/1/5 80/1/5
f 73/1/5 74/1/5 80/1/5
f 72/1/5 73/1/5 80/1/5
f 75/2/5 76/2/5 80/2/5
f 74/2/5 75/2/5 80/2/5
f 76/1/5 77/1/5 81/1/5
f 80/2/5 76/2/5 81/2/5
f 81/1/5 77/1/5 82/1/5
f 77/2/5 78/2/5 83/2/5
f 82/1/5 77/1/5 83/1/5
f 78/1/5 79/1/5 84/1/5
f 83/2/5 78/2/5 84/2/5
f 70/1/5 80/1/5 85/1/5
f 81/1/5 82/1/5 85/1/5
f 80/1/5 81/1/5 85/1/5
f 85/1/5 82/1/5 86/1/5
f 86/1/5 82/1/5 87/1/5
f 82/2/5 83/2/5 88/2/5
f 87/1/5 82/1/5 88/1/5
f 83/1/5 84/1/5 89/1/5
f 88/2/5 83/2/5 89/2/5
f 84/1/5 79/1/5 90/1/5
f 89/1/5 84/1/5 90/1/5
f 90/1/5 79/1/5 91/1/5
f 85/2/5 86/2/5 92/2/5
f 86/1/5 87/1/5 93/1/5
f 92/2/5 86/2/5 93/2/5
f 93/1/5 87/1/5 94/1/5
f 94/1/5 87/1/5 95/1/5
f 87/2/5 88/2/5 96/2/5
f 95/1/5 87/1/5 96/1/5
f 88/1/5 89/1/5 97/1/5
f 96/2/5 88/2/5 97/2/5
f 89/1/5 90/1/5 97/1/5
f 97/1/5 90/1/5 98/1/5
f 98/1/5 90/1/5 99/1/5
f 99/1/5 90/1/5 100/1/5
f 90/2/5 91/2/5 101/2/5
f 100/1/5 90/1/5 101/1/5
f 101/2/5 91/2/5 102/2/5
f 91/1/5 79/1/5 103/1/5
f 102/2/5 91/2/5 103/2/5
f 93/2/5 94/2/5 104/2/5
f 92/1/5 93/1/5 104/1/5
f 94/3/5 95/3/5 105/3/5
f 104/2/5 94/2/5 105/2/5
f 105/3/5 95/3/5 106/3/5
f 95/1/5 96/1/5 107/1/5
f 106/3/5 95/3/5 107/3/5
f 96/1/5 97/1/5 107/1/5
f 97/1/5 98/1/5 107/1/5
f 107/1/5 98/1/5 108/1/5
f 108/1/5 98/1/5 109/1/5
f 98/2/5 99/2/5 110/2/5
f 109/1/5 98/1/5 110/1/5
f 101/2/5 102/2/5 111/2/5
f 99/3/5 100/3/5 111/3/5
f 100/2/5 101/2/5 111/2/5
f 102/1/5 103/1/5 112/1/5
f 111/2/5 102/2/5 112/2/5
f 105/2/5 106/2/5 113/2/5
f 104/1/5 105/1/5 113/1/5
f 107/3/5 108/3/5 114/3/5
f 113/2/5 106/2/5 114/2/5
f 106/3/5 107/3/5 114/3/5
f 108/1/5 109/1/5 115/1/5
f 114/3/5 108/3/5 115/3/5
f 115/1/5 109/1/5 116/1/5
f 116/1/5 109/1/5 117/1/5
f 110/2/5 99/2/5 118/2/5
f 109/2/5 110/2/5 118/2/5
f 99/3/5 111/3/5 119/3/5
f 118/2/5 99/2/5 119/2/5
f 113/1/5 114/1/5 120/1/5
f 114/2/5 115/2/5 120/2/5
f 115/2/5 116/2/5 120/2/5
f 116/3/5 117/3/5 121/3/5
f 120/2/5 116/2/5 121/2/5
f 121/3/5 117/3/5 122/3/5
f 117/1/5 109/1/5 123/1/5
f 122/3/5 117/3/5 123/3/5
f 123/1/5 109/1/5 124/1/5
f 124/1/5 109/1/5 125/1/5
f 125/1/5 109/1/5 126/1/5
f 109/2/5 118/2/5 127/2/5
f 126/1/5 109/1/5 127/1/5
f 118/3/5 119/3/5 128/3/5
f 127/2/5 118/2/5 128/2/5
f 119/3/5 111/3/5 129/3/5
f 128/3/5 119/3/5 129/3/5
f 111/1/5 112/1/5 130/1/5
f 129/3/5 111/3/5 130/3/5
f 92/1/5 104/1/5 131/1/5
f 121/1/5 122/1/5 131/1/5
f 113/1/5 120/1/5 131/1/5
f 104/1/5 113/1/5 131/1/5
f 120/1/5 121/1/5 131/1/5
f 131/1/5 122/1/5 132/1/5
f 123/2/5 124/2/5 133/2/5
f 132/1/5 122/1/5 133/1/5
f 122/2/5 123/2/5 133/2/5
f 124/1/5 125/1/5 134/1/5
f 133/2/5 124/2/5 134/2/5
f 134/1/5 125/1/5 135/1/5
f 135/1/5 125/1/5 136/1/5
f 125/2/5 126/2/5 137/2/5
f 136/1/5 125/1/5 137/1/5
f 128/3/5 129/3/5 138/3/5
f 127/3/5 128/3/5 138/3/5
f 129/1/5 130/1/5 139/1/5
f 138/3/5 129/3/5 139/3/5
f 131/2/5 132/2/5 140/2/5
f 140/2/5 132/2/5 141/2/5
f 132/1/5 133/1/5 142/1/5
f 141/2/5 132/2/5 142/2/5
f 133/1/5 134/1/5 142/1/5
f 142/1/5 134/1/5 143/1/5
f 134/2/5 135/2/5 144/2/5
f 143/1/5 134/1/5 144/1/5
f 135/1/5 136/1/5 145/1/5
f 144/2/5 135/2/5 145/2/5
f 136/2/5 137/2/5 146/2/5
f 145/1/5 136/1/5 146/1/5
f 137/2/5 126/2/5 147/2/5
f 146/2/5 137/2/5 147/2/5
f 126/1/5 127/1/5 147/1/5
f 147/1/5 127/1/5 148/1/5
f 127/3/5 138/3/5 149/3/5
f 148/1/5 127/1/5 149/1/5
f 138/2/5 139/2/5 150/2/5
f 149/3/5 138/3/5 150/3/5
f 139/1/5 130/1/5 151/1/5
f 150/2/5 139/2/5 151/2/5
f 140/3/5 141/3/5 152/3/5
f 141/2/5 142/2/5 152/2/5
f 142/2/5 143/2/5 152/2/5
f 143/1/5 144/1/5 153/1/5
f 152/2/5 143/2/5 153/2/5
f 144/1/5 145/1/5 153/1/5
f 153/1/5 145/1/5 154/1/5
f 154/1/5 145/1/5 155/1/5
f 155/1/5 145/1/5 156/1/5
f 145/2/5 146/2/5 157/2/5
f 156/1/5 145/1/5 157/1/5
f 147/1/5 148/1/5 158/1/5
f 157/2/5 146/2/5 158/2/5
f 146/1/5 147/1/5 158/1/5
f 158/1/5 148/1/5 159/1/5
f 149/3/5 150/3/5 160/3/5
f 159/1/5 148/1/5 160/1/5
f 148/3/5 149/3/5 160/3/5
f 160/3/5 150/3/5 161/3/5
f 150/1/5 151/1/5 162/1/5
f 161/3/5 150/3/5 162/3/5
f 140/3/5 152/3/5 163/3/5
f 152/3/5 153/3/5 163/3/5
f 163/3/5 153/3/5 164/3/5
f 164/3/5 153/3/5 165/3/5
f 153/2/5 154/2/5 166/2/5
f 154/1/5 155/1/5 167/1/5
f 166/2/5 154/2/5 167/2/5
f 155/2/5 156/2/5 168/2/5
f 167/1/5 155/1/5 168/1/5
f 156/1/5 157/1/5 169/1/5
f 168/2/5 156/2/5 169/2/5
f 158/1/5 159/1/5 169/1/5
f 157/1/5 158/1/5 169/1/5
f 169/1/5 159/1/5 170/1/5
f 160/3/5 161/3/5 171/3/5
f 170/1/5 159/1/5 171/1/5
f 159/3/5 160/3/5 171/3/5
f 171/3/5 161/3/5 172/3/5
f 161/2/5 162/2/5 173/2/5
f 172/3/5 161/3/5 173/3/5
f 112/1/5 103/1/5 174/1/5
f 130/1/5 112/1/5 174/1/5
f 151/1/5 130/1/5 174/1/5
f 162/1/5 151/1/5 174/1/5
f 103/1/5 79/1/5 175/1/5
f 174/1/5 103/1/5 175/1/5
f 164/2/5 165/2/5 176/2/5
f 163/1/5 164/1/5 176/1/5
f 165/3/5 153/3/5 177/3/5
f 176/2/5 165/2/5 177/2/5
f 153/2/5 166/2/5 178/2/5
f 177/3/5 153/3/5 178/3/5
f 166/1/5 167/1/5 179/1/5
f 178/2/5 166/2/5 179/2/5
f 167/2/5 168/2/5 180/2/5
f 179/1/5 167/1/5 180/1/5
f 169/1/5 170/1/5 181/1/5
f 180/2/5 168/2/5 181/2/5
f 168/1/5 169/1/5 181/1/5
f 181/1/5 170/1/5 182/1/5
f 182/1/5 170/1/5 183/1/5
f 183/1/5 170/1/5 184/1/5
f 170/3/5 171/3/5 185/3/5
f 184/1/5 170/1/5 185/1/5
f 171/3/5 172/3/5 185/3/5
f 185/3/5 172/3/5 186/3/5
f 172/2/5 173/2/5 187/2/5
f 186/3/5 172/3/5 187/3/5
f 173/2/5 162/2/5 188/2/5
f 187/2/5 173/2/5 188/2/5
f 162/1/5 174/1/5 188/1/5
f 188/1/5 174/1/5 189/1/5
f 174/2/5 175/2/5 190/2/5
f 189/1/5 174/1/5 190/1/5
f 190/2/5 175/2/5 191/2/5
f 177/1/5 178/1/5 192/1/5
f 176/1/5 177/1/5 192/1/5
f 163/1/5 176/1/5 192/1/5
f 178/3/5 179/3/5 193/3/5
f 192/1/5 178/1/5 193/1/5
f 179/2/5 180/2/5 194/2/5
f 193/3/5 179/3/5 194/3/5
f 194/2/5 180/2/5 195/2/5
f 180/1/5 181/1/5 196/1/5
f 195/2/5 180/2/5 196/2/5
f 181/1/5 182/1/5 196/1/5
f 196/1/5 182/1/5 197/1/5
f 182/2/5 183/2/5 198/2/5
f 197/1/5 182/1/5 198/1/5
f 185/3/5 186/3/5 199/3/5
f 184/3/5 185/3/5 199/3/5
f 186/2/5 187/2/5 200/2/5
f 199/3/5 186/3/5 200/3/5
f 188/1/5 189/1/5 201/1/5
f 200/2/5 187/2/5 201/2/5
f 187/1/5 188/1/5 201/1/5
f 201/1/5 189/1/5 202/1/5
f 189/2/5 190/2/5 203/2/5
f 202/1/5 189/1/5 203/1/5
f 190/1/5 191/1/5 204/1/5
f 203/2/5 190/2/5 204/2/5
f 192/2/5 193/2/5 205/2/5
f 194/2/5 195/2/5 205/2/5
f 193/2/5 194/2/5 205/2/5
f 196/1/5 197/1/5 206/1/5
f 205/2/5 195/2/5 206/2/5
f 195/1/5 196/1/5 206/1/5
f 197/2/5 198/2/5 207/2/5
f 206/1/5 197/1/5 207/1/5
f 198/2/5 183/2/5 208/2/5
f 207/2/5 198/2/5 208/2/5
f 183/1/5 184/1/5 208/1/5
f 208/1/5 184/1/5 209/1/5
f 184/3/5 199/3/5 210/3/5
f 209/1/5 184/1/5 210/1/5
f 200/1/5 201/1/5 211/1/5
f 199/2/5 200/2/5 211/2/5
f 201/1/5 202/1/5 211/1/5
f 202/2/5 203/2/5 212/2/5
f 211/1/5 202/1/5 212/1/5
f 203/1/5 204/1/5 213/1/5
f 212/2/5 203/2/5 213/2/5
f 208/1/5 209/1/5 214/1/5
f 206/1/5 207/1/5 214/1/5
f 205/1/5 206/1/5 214/1/5
f 207/1/5 208/1/5 214/1/5
f 209/2/5 210/2/5 215/2/5
f 214/1/5 209/1/5 215/1/5
f 210/3/5 199/3/5 216/3/5
f 215/2/5 210/2/5 216/2/5
f 211/2/5 212/2/5 217/2/5
f 216/3/5 199/3/5 217/3/5
f 199/2/5 211/2/5 217/2/5
f 212/1/5 213/1/5 218/1/5
f 217/2/5 212/2/5 218/2/5
f 213/1/5 204/1/5 219/1/5
f 218/1/5 213/1/5 219/1/5
f 204/1/5 191/1/5 219/1/5
f 225/2/6 221/2/6 220/2/6
f 226/1/6 222/1/6 221/1/6
f 226/2/6 221/2/6 225/2/6
f 227/1/6 222/1/6 226/1/6
f 228/2/6 223/2/6 222/2/6
f 228/1/6 222/1/6 227/1/6
f 229/1/6 224/1/6 223/1/6
f 229/2/6 223/2/6 228/2/6
f 230/1/6 224/1/6 229/1/6
f 231/1/6 224/1/6 230/1/6
f 232/1/6 224/1/6 231/1/6
f 233/3/6 226/3/6 225/3/6
f 234/2/6 227/2/6 226/2/6
f 234/3/6 226/3/6 233/3/6
f 235/1/6 228/1/6 227/1/6
f 235/2/6 227/2/6 234/2/6
f 235/1/6 229/1/6 228/1/6
f 236/2/6 230/2/6 229/2/6
f 236/1/6 229/1/6 235/1/6
f 237/2/6 230/2/6 236/2/6
f 238/1/6 231/1/6 230/1/6
f 238/2/6 230/2/6 237/2/6
f 239/1/6 231/1/6 238/1/6
f 240/1/6 231/1/6 239/1/6
f 241/2/6 232/2/6 231/2/6
f 241/1/6 231/1/6 240/1/6
f 242/2/6 232/2/6 241/2/6
f 243/1/6 234/1/6 233/1/6
f 243/1/6 235/1/6 234/1/6
f 243/1/6 237/1/6 236/1/6
f 243/1/6 236/1/6 235/1/6
f 243/2/6 239/2/6 238/2/6
f 243/2/6 238/2/6 237/2/6
f 244/1/6 240/1/6 239/1/6
f 244/2/6 239/2/6 243/2/6
f 245/1/6 240/1/6 244/1/6
f 246/2/6 241/2/6 240/2/6
f 246/1/6 240/1/6 245/1/6
f 247/1/6 242/1/6 241/1/6
f 247/2/6 241/2/6 246/2/6
f 248/1/6 243/1/6 233/1/6
f 248/1/6 245/1/6 244/1/6
f 248/1/6 244/1/6 243/1/6
f 249/1/6 245/1/6 248/1/6
f 250/1/6 245/1/6 249/1/6
f 251/2/6 246/2/6 245/2/6
f 251/1/6 245/1/6 250/1/6
f 252/1/6 247/1/6 246/1/6
f 252/2/6 246/2/6 251/2/6
f 253/1/6 242/1/6 247/1/6
f 253/1/6 247/1/6 252/1/6
f 254/1/6 242/1/6 253/1/6
f 255/2/6 249/2/6 248/2/6
f 256/1/6 250/1/6 249/1/6
f 256/2/6 249/2/6 255/2/6
f 257/1/6 250/1/6 256/1/6
f 258/1/6 250/1/6 257/1/6
f 259/2/6 251/2/6 250/2/6
f 259/1/6 250/1/6 258/1/6
f 260/1/6 252/1/6 251/1/6
f 260/2/6 251/2/6 259/2/6
f 260/1/6 253/1/6 252/1/6
f 261/1/6 253/1/6 260/1/6
f 262/1/6 253/1/6 261/1/6
f 263/1/6 253/1/6 262/1/6
f 264/2/6 254/2/6 253/2/6
f 264/1/6 253/1/6 263/1/6
f 265/2/6 254/2/6 264/2/6
f 266/1/6 242/1/6 254/1/6
f 266/2/6 254/2/6 265/2/6
f 267/2/6 257/2/6 256/2/6
f 267/1/6 256/1/6 255/1/6
f 268/3/6 258/3/6 257/3/6
f 268/2/6 257/2/6 267/2/6
f 269/3/6 258/3/6 268/3/6
f 270/1/6 259/1/6 258/1/6
f 270/3/6 258/3/6 269/3/6
f 270/1/6 260/1/6 259/1/6
f 270/1/6 261/1/6 260/1/6
f 271/1/6 261/1/6 270/1/6
f 272/1/6 261/1/6 271/1/6
f 273/2/6 262/2/6 261/2/6
f 273/1/6 261/1/6 272/1/6
f 274/2/6 265/2/6 264/2/6
f 274/3/6 263/3/6 262/3/6
f 274/2/6 264/2/6 263/2/6
f 275/1/6 266/1/6 265/1/6
f 275/2/6 265/2/6 274/2/6
f 276/2/6 269/2/6 268/2/6
f 276/1/6 268/1/6 267/1/6
f 277/3/6 271/3/6 270/3/6
f 277/2/6 269/2/6 276/2/6
f 277/3/6 270/3/6 269/3/6
f 278/1/6 272/1/6 271/1/6
f 278/3/6 271/3/6 277/3/6
f 279/1/6 272/1/6 278/1/6
f 280/1/6 272/1/6 279/1/6
f 281/2/6 262/2/6 273/2/6
f 281/2/6 273/2/6 272/2/6
f 282/3/6 274/3/6 262/3/6
f 282/2/6 262/2/6 281/2/6
f 283/1/6 277/1/6 276/1/6
f 283/2/6 278/2/6 277/2/6
f 283/2/6 279/2/6 278/2/6
f 284/3/6 280/3/6 279/3/6
f 284/2/6 279/2/6 283/2/6
f 285/3/6 280/3/6 284/3/6
f 286/1/6 272/1/6 280/1/6
f 286/3/6 280/3/6 285/3/6
f 287/1/6 272/1/6 286/1/6
f 288/1/6 272/1/6 287/1/6
f 289/1/6 272/1/6 288/1/6
f 290/2/6 281/2/6 272/2/6
f 290/1/6 272/1/6 289/1/6
f 291/3/6 282/3/6 281/3/6
f 291/2/6 281/2/6 290/2/6
f 292/3/6 274/3/6 282/3/6
f 292/3/6 282/3/6 291/3/6
f 293/1/6 275/1/6 274/1/6
f 293/3/6 274/3/6 292/3/6
f 294/1/6 267/1/6 255/1/6
f 294/1/6 285/1/6 284/1/6
f 294/1/6 283/1/6 276/1/6
f 294/1/6 276/1/6 267/1/6
f 294/1/6 284/1/6 283/1/6
f 295/1/6 285/1/6 294/1/6
f 296/2/6 287/2/6 286/2/6
f 296/1/6 285/1/6 295/1/6
f 296/2/6 286/2/6 285/2/6
f 297/1/6 288/1/6 287/1/6
f 297/2/6 287/2/6 296/2/6
f 298/1/6 288/1/6 297/1/6
f 299/1/6 288/1/6 298/1/6
f 300/2/6 289/2/6 288/2/6
f 300/1/6 288/1/6 299/1/6
f 301/3/6 292/3/6 291/3/6
f 301/3/6 291/3/6 290/3/6
f 302/1/6 293/1/6 292/1/6
f 302/3/6 292/3/6 301/3/6
f 303/2/6 295/2/6 294/2/6
f 304/2/6 295/2/6 303/2/6
f 305/1/6 296/1/6 295/1/6
f 305/2/6 295/2/6 304/2/6
f 305/1/6 297/1/6 296/1/6
f 306/1/6 297/1/6 305/1/6
f 307/2/6 298/2/6 297/2/6
f 307/1/6 297/1/6 306/1/6
f 308/1/6 299/1/6 298/1/6
f 308/2/6 298/2/6 307/2/6
f 309/2/6 300/2/6 299/2/6
f 309/1/6 299/1/6 308/1/6
f 310/2/6 289/2/6 300/2/6
f 310/2/6 300/2/6 309/2/6
f 310/1/6 290/1/6 289/1/6
f 311/1/6 290/1/6 310/1/6
f 312/3/6 301/3/6 290/3/6
f 312/1/6 290/1/6 311/1/6
f 313/2/6 302/2/6 301/2/6
f 313/3/6 301/3/6 312/3/6
f 314/1/6 293/1/6 302/1/6
f 314/2/6 302/2/6 313/2/6
f 315/3/6 304/3/6 303/3/6
f 315/2/6 305/2/6 304/2/6
f 315/2/6 306/2/6 305/2/6
f 316/1/6 307/1/6 306/1/6
f 316/2/6 306/2/6 315/2/6
f 316/1/6 308/1/6 307/1/6
f 317/1/6 308/1/6 316/1/6
f 318/1/6 308/1/6 317/1/6
f 319/1/6 308/1/6 318/1/6
f 320/2/6 309/2/6 308/2/6
f 320/1/6 308/1/6 319/1/6
f 321/1/6 311/1/6 310/1/6
f 321/2/6 309/2/6 320/2/6
f 321/1/6 310/1/6 309/1/6
f 322/1/6 311/1/6 321/1/6
f 323/3/6 313/3/6 312/3/6
f 323/1/6 311/1/6 322/1/6
f 323/3/6 312/3/6 311/3/6
f 324/3/6 313/3/6 323/3/6
f 325/1/6 314/1/6 313/1/6
f 325/3/6 313/3/6 324/3/6
f 326/3/6 315/3/6 303/3/6
f 326/3/6 316/3/6 315/3/6
f 327/3/6 316/3/6 326/3/6
f 328/3/6 316/3/6 327/3/6
f 329/2/6 317/2/6 316/2/6
f 330/1/6 318/1/6 317/1/6
f 330/2/6 317/2/6 329/2/6
f 331/2/6 319/2/6 318/2/6
f 331/1/6 318/1/6 330/1/6
f 332/1/6 320/1/6 319/1/6
f 332/2/6 319/2/6 331/2/6
f 332/1/6 322/1/6 321/1/6
f 332/1/6 321/1/6 320/1/6
f 333/1/6 322/1/6 332/1/6
f 334/3/6 324/3/6 323/3/6
f 334/1/6 322/1/6 333/1/6
f 334/3/6 323/3/6 322/3/6
f 335/3/6 324/3/6 334/3/6
f 336/2/6 325/2/6 324/2/6
f 336/3/6 324/3/6 335/3/6
f 337/1/6 266/1/6 275/1/6
f 337/1/6 275/1/6 293/1/6
f 337/1/6 293/1/6 314/1/6
f 337/1/6 314/1/6 325/1/6
f 338/1/6 242/1/6 266/1/6
f 338/1/6 266/1/6 337/1/6
f 339/2/6 328/2/6 327/2/6
f 339/1/6 327/1/6 326/1/6
f 340/3/6 316/3/6 328/3/6
f 340/2/6 328/2/6 339/2/6
f 341/2/6 329/2/6 316/2/6
f 341/3/6 316/3/6 340/3/6
f 342/1/6 330/1/6 329/1/6
f 342/2/6 329/2/6 341/2/6
f 343/2/6 331/2/6 330/2/6
f 343/1/6 330/1/6 342/1/6
f 344/1/6 333/1/6 332/1/6
f 344/2/6 331/2/6 343/2/6
f 344/1/6 332/1/6 331/1/6
f 345/1/6 333/1/6 344/1/6
f 346/1/6 333/1/6 345/1/6
f 347/1/6 333/1/6 346/1/6
f 348/3/6 334/3/6 333/3/6
f 348/1/6 333/1/6 347/1/6
f 348/3/6 335/3/6 334/3/6
f 349/3/6 335/3/6 348/3/6
f 350/2/6 336/2/6 335/2/6
f 350/3/6 335/3/6 349/3/6
f 351/2/6 325/2/6 336/2/6
f 351/2/6 336/2/6 350/2/6
f 351/1/6 337/1/6 325/1/6
f 352/1/6 337/1/6 351/1/6
f 353/2/6 338/2/6 337/2/6
f 353/1/6 337/1/6 352/1/6
f 354/2/6 338/2/6 353/2/6
f 355/1/6 341/1/6 340/1/6
f 355/1/6 340/1/6 339/1/6
f 355/1/6 339/1/6 326/1/6
f 356/3/6 342/3/6 341/3/6
f 356/1/6 341/1/6 355/1/6
f 357/2/6 343/2/6 342/2/6
f 357/3/6 342/3/6 356/3/6
f 358/2/6 343/2/6 357/2/6
f 359/1/6 344/1/6 343/1/6
f 359/2/6 343/2/6 358/2/6
f 359/1/6 345/1/6 344/1/6
f 360/1/6 345/1/6 359/1/6
f 361/2/6 346/2/6 345/2/6
f 361/1/6 345/1/6 360/1/6
f 362/3/6 349/3/6 348/3/6
f 362/3/6 348/3/6 347/3/6
f 363/2/6 350/2/6 349/2/6
f 363/3/6 349/3/6 362/3/6
f 364/1/6 352/1/6 351/1/6
f 364/2/6 350/2/6 363/2/6
f 364/1/6 351/1/6 350/1/6
f 365/1/6 352/1/6 364/1/6
f 366/2/6 353/2/6 352/2/6
f 366/1/6 352/1/6 365/1/6
f 367/1/6 354/1/6 353/1/6
f 367/2/6 353/2/6 366/2/6
f 368/2/6 356/2/6 355/2/6
f 368/2/6 358/2/6 357/2/6
f 368/2/6 357/2/6 356/2/6
f 369/1/6 360/1/6 359/1/6
f 369/2/6 358/2/6 368/2/6
f 369/1/6 359/1/6 358/1/6
f 370/2/6 361/2/6 360/2/6
f 370/1/6 360/1/6 369/1/6
f 371/2/6 346/2/6 361/2/6
f 371/2/6 361/2/6 370/2/6
f 371/1/6 347/1/6 346/1/6
f 372/1/6 347/1/6 371/1/6
f 373/3/6 362/3/6 347/3/6
f 373/1/6 347/1/6 372/1/6
f 374/1/6 364/1/6 363/1/6
f 374/2/6 363/2/6 362/2/6
f 374/1/6 365/1/6 364/1/6
f 375/2/6 366/2/6 365/2/6
f 375/1/6 365/1/6 374/1/6
f 376/1/6 367/1/6 366/1/6
f 376/2/6 366/2/6 375/2/6
f 377/1/6 372/1/6 371/1/6
f 377/1/6 370/1/6 369/1/6
f 377/1/6 369/1/6 368/1/6
f 377/1/6 371/1/6 370/1/6
f 378/2/6 373/2/6 372/2/6
f 378/1/6 372/1/6 377/1/6
f 379/3/6 362/3/6 373/3/6
f 379/2/6 373/2/6 378/2/6
f 380/2/6 375/2/6 374/2/6
f 380/3/6 362/3/6 379/3/6
f 380/2/6 374/2/6 362/2/6
f 381/1/6 376/1/6 375/1/6
f 381/2/6 375/2/6 380/2/6
f 382/1/6 367/1/6 376/1/6
f 382/1/6 376/1/6 381/1/6
f 382/1/6 354/1/6 367/1/6
